{"title":"Resurrection US S01E02 HDTV x264 AAC E-Subs [GWC].mp4","uid":9777504,"size":111129747,"categoryP":"video","categoryS":"tv_shows","magnet":"?xt=urn:btih:58be507fafb1004b4d7e9e6a7108678890e461a7&amp;dn=Resurrection+US+S01E02+HDTV+x264+AAC+E-Subs+%5BGWC%5D.mp4&amp;tr=udp%3A%2F%2Ftracker.openbittorrent.com%3A80&amp;tr=udp%3A%2F%2Fopen.demonii.com%3A1337&amp;tr=udp%3A%2F%2Ftracker.coppersurfer.tk%3A6969&amp;tr=udp%3A%2F%2Fexodus.desync.com%3A6969","seeders":1,"leechers":0,"uploader":"canc232","files":1,"time":1395056674,"description":"Resurrection S01E02 HDTV x264 AAC E-Subs [GWC]\n\n\nSTORYLINE :\nThe lives of the people of Aurora are forever changed when their deceased loved ones return.\n\n\nSCREENS : &lt;a href=&quot;\nhttp://i.imgur.com/TdT2ler.jpg&quot; rel=&quot;nofollow&quot; target=&quot;_NEW&quot;&gt;\nhttp://i.imgur.com/TdT2ler.jpg&lt;/a&gt; &lt;a href=&quot;\nhttp://i.imgur.com/P1Tv0BY.jpg&quot; rel=&quot;nofollow&quot; target=&quot;_NEW&quot;&gt;\nhttp://i.imgur.com/P1Tv0BY.jpg&lt;/a&gt; &lt;a href=&quot;\nhttp://i.imgur.com/TkB2sPX.jpg&quot; rel=&quot;nofollow&quot; target=&quot;_NEW&quot;&gt;\nhttp://i.imgur.com/TkB2sPX.jpg&lt;/a&gt;\n\n\nMEDIA INFO :\nGeneral \nFormat : MPEG-4 \nFormat profile : Base Media \nCodec ID : isom \nFile size : 106 MiB \nDuration : 41mn 2s \nOverall bit rate mode : Variable \nOverall bit rate : 361 Kbps  \n\nVideo \nFormat : AVC \nFormat profile : &lt;a class=&quot;__cf_email__&quot; href=&quot;/cdn-cgi/l/email-protection&quot; data-cfemail=&quot;4c04252b240c007f627c&quot;&gt;[email&amp;#160;protected]&lt;/a&gt;&lt;script cf-hash='f9e31' type=&quot;text/javascript&quot;&gt;\n/* &lt;![CDATA[ */!function(){try{var t=&quot;currentScript&quot;in document?document.currentScript:function(){for(var t=document.getElementsByTagName(&quot;script&quot;),e=t.length;e--;)if(t[e].getAttribute(&quot;cf-hash&quot;))return t[e]}();if(t&amp;&amp;t.previousSibling){var e,r,n,i,c=t.previousSibling,a=c.getAttribute(&quot;data-cfemail&quot;);if(a){for(e=&quot;&quot;,r=parseInt(a.substr(0,2),16),n=2;a.length-n;n+=2)i=parseInt(a.substr(n,2),16)^r,e+=String.fromCharCode(i);e=document.createTextNode(e),c.parentNode.replaceChild(e,c)}}}catch(u){}}();/* ]]&gt; */&lt;/script&gt; \nFormat settings, CABAC : Yes \nDuration : 41mn 2s \nBit rate : 294 Kbps \nMaximum bit rate : 2 069 Kbps \nWidth : 720 pixels \nHeight : 404 pixels \nDisplay aspect ratio : 16:9 \nFrame rate : 23.976 fps \nStream size : 86.2 MiB (81%) \nTitle : Resurrection S01E02 HDTV x264 AAC E-Subs [GWC] \nWriting library : x264 core\n\nAudio \nFormat : AAC \nFormat profile : HE-AAC / LC \nDuration : 41mn 2s \nBit rate mode : Variable \nChannel(s) : 2 channels \nSampling rate : 48.0 KHz / 24.0 KHz \nStream size : 18.7 MiB (18%) \nLanguage : English \n\nText \nFormat : Timed Text \nTitle : English Subtitle by n17t01 \nLanguage : English \n\n","torrent":{"xt":"urn:btih:58be507fafb1004b4d7e9e6a7108678890e461a7","amp;dn":"Resurrection+US+S01E02+HDTV+x264+AAC+E-Subs+%5BGWC%5D.mp4","amp;tr":["udp%3A%2F%2Ftracker.openbittorrent.com%3A80","udp%3A%2F%2Fopen.demonii.com%3A1337","udp%3A%2F%2Ftracker.coppersurfer.tk%3A6969","udp%3A%2F%2Fexodus.desync.com%3A6969"],"infoHash":"58be507fafb1004b4d7e9e6a7108678890e461a7","infoHashBuffer":{"type":"Buffer","data":[88,190,80,127,175,177,0,75,77,126,158,106,113,8,103,136,144,228,97,167]},"announce":[],"urlList":[]}}